<?xml version="1.0" encoding="UTF-8" standalone="no"?>
<svg width="63px" height="63px" viewBox="0 0 63 63" version="1.1" xmlns="http://www.w3.org/2000/svg" xmlns:xlink="http://www.w3.org/1999/xlink">
    <!-- Generator: Sketch 50.2 (55047) - http://www.bohemiancoding.com/sketch -->
    <title>个人中心</title>
    <desc>Created with Sketch.</desc>
    <defs>
        <path d="M64.516129,100 L12.904626,100 C10.7819483,100 6.48040626,100 0,100 L8.97579502e-14,87.095374 L0,0 L2064.51613,0 C2064.51613,58.0635826 2064.51613,87.095374 2064.51613,87.095374 C2064.51613,89.7795316 2064.51613,94.0810736 2064.51613,100 C2057.98024,100 2053.6787,100 2051.6115,100 L265.232975,100 C265.232975,155.228475 215.053763,200 164.874552,200 C114.695341,200 64.516129,155.228475 64.516129,100 Z" id="path-1"></path>
        <filter x="-1.8%" y="-17.8%" width="103.5%" height="136.5%" filterUnits="objectBoundingBox" id="filter-3">
            <feMorphology radius="0.5" operator="erode" in="SourceAlpha" result="shadowSpreadOuter1"></feMorphology>
            <feOffset dx="0" dy="1" in="shadowSpreadOuter1" result="shadowOffsetOuter1"></feOffset>
            <feGaussianBlur stdDeviation="12.5" in="shadowOffsetOuter1" result="shadowBlurOuter1"></feGaussianBlur>
            <feColorMatrix values="0 0 0 0 0   0 0 0 0 0   0 0 0 0 0  0 0 0 0.5 0" type="matrix" in="shadowBlurOuter1"></feColorMatrix>
        </filter>
        <filter x="-3.1%" y="-11.2%" width="106.6%" height="128.4%" filterUnits="objectBoundingBox" id="filter-4">
            <feOffset dx="0" dy="2" in="SourceAlpha" result="shadowOffsetOuter1"></feOffset>
            <feGaussianBlur stdDeviation="2.5" in="shadowOffsetOuter1" result="shadowBlurOuter1"></feGaussianBlur>
            <feColorMatrix values="0 0 0 0 0   0 0 0 0 0   0 0 0 0 0  0 0 0 0.5 0" type="matrix" in="shadowBlurOuter1" result="shadowMatrixOuter1"></feColorMatrix>
            <feMerge>
                <feMergeNode in="shadowMatrixOuter1"></feMergeNode>
                <feMergeNode in="SourceGraphic"></feMergeNode>
            </feMerge>
        </filter>
        <path d="M26.6695605,8.00086815 C11.9479631,8.00086815 0,19.9488313 0,34.6704286 C0,49.392026 11.9479631,61.3399891 26.6695605,61.3399891 C41.3911579,61.3399891 53.339121,49.392026 53.339121,34.6704286 C53.339121,19.9488313 41.3911579,8.00086815 26.6695605,8.00086815 L26.6695605,8.00086815 Z M26.6695605,16.0017363 C31.0967075,16.0017363 34.6704286,19.5754574 34.6704286,24.0026044 C34.6704286,28.4297515 31.0967075,32.0034726 26.6695605,32.0034726 C22.2424135,32.0034726 18.6686923,28.4297515 18.6686923,24.0026044 C18.6686923,19.5754574 22.2424135,16.0017363 26.6695605,16.0017363 L26.6695605,16.0017363 Z M26.6695605,54.672599 C20.0021704,54.672599 14.1081975,51.1505237 10.6678242,45.8123784 C10.7478329,40.3366519 21.3356484,37.3373847 26.6695605,37.3373847 C31.976803,37.3373847 42.5912881,40.3366519 42.6712968,45.8123784 C39.2309235,51.1505237 33.3369506,54.672599 26.6695605,54.672599 L26.6695605,54.672599 Z" id="path-5"></path>
    </defs>
    <g id="Welcome" stroke="none" stroke-width="1" fill="none" fill-rule="evenodd">
        <g id="个人中心" transform="translate(-1484.000000, -18.000000)">
            <rect id="背景" fill="#F9F9F9" x="0" y="1" width="1920" height="2200"></rect>
            <g id="导航栏" transform="translate(-17.000000, -7.000000)">
                <g id="Group">
                    <mask id="mask-2" fill="white">
                        <use xlink:href="#path-1"></use>
                    </mask>
                    <g id="Oval">
                        <use fill="black" fill-opacity="1" filter="url(#filter-3)" xlink:href="#path-1"></use>
                        <use fill="#FFFFFF" fill-rule="evenodd" xlink:href="#path-1"></use>
                    </g>
                </g>
                <g id="login" filter="url(#filter-4)" transform="translate(1506.000000, 21.000000)">
                    <mask id="mask-6" fill="white">
                        <use xlink:href="#path-5"></use>
                    </mask>
                    <use id="Mask" fill="#D1D1D1" xlink:href="#path-5"></use>
                </g>
            </g>
        </g>
    </g>
</svg>